<mxfile host="app.diagrams.net" modified="2022-12-30T14:38:40.599Z" agent="5.0 (X11; Linux x86_64) AppleWebKit/537.36 (KHTML, like Gecko) Chrome/109.0.0.0 Safari/537.36" version="20.7.4" etag="RQVKcZ0y-OZnjvBVSf98" type="github">
  <diagram id="wj-oqUF4BPhu1TsBE-4n" name="Page-1">
    <mxGraphModel dx="1420" dy="800" grid="1" gridSize="10" guides="1" tooltips="1" connect="1" arrows="1" fold="1" page="1" pageScale="1" pageWidth="850" pageHeight="1100" math="0" shadow="0">
      <root>
        <mxCell id="0" />
        <mxCell id="1" parent="0" />
        <mxCell id="-RuzHxiXp2l8fw3Z1m4f-9" style="edgeStyle=orthogonalEdgeStyle;rounded=0;orthogonalLoop=1;jettySize=auto;html=1;entryX=0.5;entryY=0;entryDx=0;entryDy=0;" edge="1" parent="1" source="-RuzHxiXp2l8fw3Z1m4f-1" target="-RuzHxiXp2l8fw3Z1m4f-7">
          <mxGeometry relative="1" as="geometry" />
        </mxCell>
        <mxCell id="-RuzHxiXp2l8fw3Z1m4f-1" value="Start" style="ellipse;whiteSpace=wrap;html=1;aspect=fixed;strokeWidth=2;" vertex="1" parent="1">
          <mxGeometry x="385" y="130" width="80" height="80" as="geometry" />
        </mxCell>
        <mxCell id="-RuzHxiXp2l8fw3Z1m4f-3" value="End" style="ellipse;whiteSpace=wrap;html=1;aspect=fixed;strokeWidth=2;" vertex="1" parent="1">
          <mxGeometry x="385" y="510" width="80" height="80" as="geometry" />
        </mxCell>
        <mxCell id="-RuzHxiXp2l8fw3Z1m4f-12" style="edgeStyle=orthogonalEdgeStyle;rounded=0;orthogonalLoop=1;jettySize=auto;html=1;exitX=0.5;exitY=1;exitDx=0;exitDy=0;entryX=0.5;entryY=0;entryDx=0;entryDy=0;" edge="1" parent="1" source="-RuzHxiXp2l8fw3Z1m4f-4" target="-RuzHxiXp2l8fw3Z1m4f-3">
          <mxGeometry relative="1" as="geometry" />
        </mxCell>
        <mxCell id="-RuzHxiXp2l8fw3Z1m4f-4" value="User sees payment history" style="rounded=1;whiteSpace=wrap;html=1;strokeWidth=1;" vertex="1" parent="1">
          <mxGeometry x="365" y="420" width="120" height="60" as="geometry" />
        </mxCell>
        <mxCell id="-RuzHxiXp2l8fw3Z1m4f-11" style="edgeStyle=orthogonalEdgeStyle;rounded=0;orthogonalLoop=1;jettySize=auto;html=1;exitX=0.5;exitY=1;exitDx=0;exitDy=0;entryX=0.5;entryY=0;entryDx=0;entryDy=0;" edge="1" parent="1" source="-RuzHxiXp2l8fw3Z1m4f-6" target="-RuzHxiXp2l8fw3Z1m4f-4">
          <mxGeometry relative="1" as="geometry" />
        </mxCell>
        <mxCell id="-RuzHxiXp2l8fw3Z1m4f-6" value="User applies filters to show the formatted list" style="rounded=1;whiteSpace=wrap;html=1;strokeWidth=1;" vertex="1" parent="1">
          <mxGeometry x="365" y="330" width="120" height="60" as="geometry" />
        </mxCell>
        <mxCell id="-RuzHxiXp2l8fw3Z1m4f-10" style="edgeStyle=orthogonalEdgeStyle;rounded=0;orthogonalLoop=1;jettySize=auto;html=1;exitX=0.5;exitY=1;exitDx=0;exitDy=0;entryX=0.5;entryY=0;entryDx=0;entryDy=0;" edge="1" parent="1" source="-RuzHxiXp2l8fw3Z1m4f-7" target="-RuzHxiXp2l8fw3Z1m4f-6">
          <mxGeometry relative="1" as="geometry" />
        </mxCell>
        <mxCell id="-RuzHxiXp2l8fw3Z1m4f-7" value="User sees his/her profile" style="rounded=1;whiteSpace=wrap;html=1;strokeWidth=1;" vertex="1" parent="1">
          <mxGeometry x="365" y="240" width="120" height="60" as="geometry" />
        </mxCell>
      </root>
    </mxGraphModel>
  </diagram>
</mxfile>
